<svg width="16" height="16" viewBox="0 0 16 16" fill="none" xmlns="http://www.w3.org/2000/svg">
<path fill-rule="evenodd" clip-rule="evenodd" d="M7.99998 13.3333C10.9455 13.3333 13.3333 10.9455 13.3333 7.99998C13.3333 5.05446 10.9455 2.66665 7.99998 2.66665C5.05446 2.66665 2.66665 5.05446 2.66665 7.99998C2.66665 10.9455 5.05446 13.3333 7.99998 13.3333ZM7.99998 14.6666C11.6819 14.6666 14.6666 11.6819 14.6666 7.99998C14.6666 4.31808 11.6819 1.33331 7.99998 1.33331C4.31808 1.33331 1.33331 4.31808 1.33331 7.99998C1.33331 11.6819 4.31808 14.6666 7.99998 14.6666ZM4.66665 7.99998C4.66665 7.63179 4.96512 7.33331 5.33331 7.33331H7.33331V5.33331C7.33331 4.96512 7.63179 4.66665 7.99998 4.66665C8.36817 4.66665 8.66665 4.96512 8.66665 5.33331V7.33331H10.6666C11.0348 7.33331 11.3333 7.63179 11.3333 7.99998C11.3333 8.36817 11.0348 8.66665 10.6666 8.66665H8.66665V10.6666C8.66665 11.0348 8.36817 11.3333 7.99998 11.3333C7.63179 11.3333 7.33331 11.0348 7.33331 10.6666V8.66665H5.33331C4.96512 8.66665 4.66665 8.36817 4.66665 7.99998Z" fill="white"/>
</svg>
